# xmcd CD database file
#
# Track frame offsets:
#	150
#	16992
#	28237
#
# Disc length: 638 seconds
#
# Revision: 0
# Processed by: cddbd v1.5.1PL2 Copyright (c) Steve Scherf et al.
# Submitted via: CD2WAV32(JP) R3.22
#
DISCID=1c027c03
DTITLE=LaB LIFe - WORLD WIDE LOVE SONG
DYEAR=1999
DGENRE=Pop
TTITLE0=WORLD WIDE LOVE SONG
TTITLE1=GLIDER 81
TTITLE2=If You...
EXTD=
EXTT0=
EXTT1=
EXTT2=
PLAYORDER=
